<svg xmlns="http://www.w3.org/2000/svg" version="1.1" xmlns:xlink="http://www.w3.org/1999/xlink" width="200" height="200"><svg xmlns="http://www.w3.org/2000/svg" version="1.1" xmlns:xlink="http://www.w3.org/1999/xlink" width="200" height="200"><svg xmlns="http://www.w3.org/2000/svg" version="1.1" xmlns:xlink="http://www.w3.org/1999/xlink" viewBox="0 0 200 200"><rect width="200" height="200" fill="url('#gradient')"></rect><defs><linearGradient id="gradient" gradientTransform="rotate(51 0.5 0.5)"><stop offset="0%" stop-color="#e32929"></stop><stop offset="100%" stop-color="#db3d08"></stop></linearGradient></defs><g><g fill="#000000" transform="matrix(4.842752423740837,0,0,4.842752423740837,-4.070006061062571,126.58987032456668)" stroke="#000000" stroke-width="2"><path d="M0.84 0L0.84-14.22L4.25-14.22L4.25-2.64L9.36-2.64L9.36-14.22L12.79-14.22L12.79-2.61L14.97-2.61L14.78 3.43L11.54 3.43L11.54 0L0.84 0ZM25.59 0L24.76-2.66L20.06-2.66L19.24 0L15.58 0L20.79-14.22L24.01-14.22L29.27 0L25.59 0ZM22.40-10.23L20.88-5.30L23.94-5.30L22.40-10.23ZM42.14-7.47L42.14-6.82Q42.14-4.74 41.37-3.13Q40.60-1.53 39.17-0.67Q37.75 0.20 35.94 0.20Q34.12 0.20 32.71-0.64Q31.31-1.47 30.52-3.03Q29.74-4.58 29.70-6.59L29.70-6.59L29.70-7.39Q29.70-9.48 30.46-11.08Q31.23-12.68 32.66-13.54Q34.09-14.41 35.92-14.41L35.92-14.41Q37.72-14.41 39.14-13.55Q40.56-12.70 41.34-11.11Q42.13-9.52 42.14-7.47L42.14-7.47ZM38.65-6.76L38.65-7.41Q38.65-9.53 37.94-10.63Q37.24-11.73 35.92-11.73L35.92-11.73Q33.34-11.73 33.19-7.86L33.19-7.86L33.18-6.82Q33.18-4.73 33.88-3.60Q34.57-2.48 35.94-2.48L35.94-2.48Q37.24-2.48 37.94-3.58Q38.64-4.69 38.65-6.76L38.65-6.76Z"></path></g></g></svg></svg><style>@media (prefers-color-scheme: light) { :root { filter: none; } }
@media (prefers-color-scheme: dark) { :root { filter: none; } }
</style></svg>